<svg width="60" height="60" viewBox="0 0 60 60" fill="none" xmlns="http://www.w3.org/2000/svg">
<path d="M4.63795 7.06765C4.86926 7.06765 5.09705 6.94735 5.26026 6.73682C5.42464 6.5278 5.51858 6.23607 5.51858 5.93983C5.51858 5.64359 5.42464 5.35186 5.26026 5.14284C5.09705 4.93231 4.87044 4.81201 4.63795 4.81201C4.40547 4.81201 4.17885 4.93231 4.01564 5.14284C3.85126 5.35186 3.75732 5.64359 3.75732 5.93983C3.75732 6.23607 3.85126 6.5278 4.01564 6.73682C4.17885 6.94735 4.40664 7.06765 4.63795 7.06765Z" fill="black"/>
<path d="M7.45597 7.06765C7.68846 7.06765 7.91507 6.94735 8.07828 6.73682C8.24267 6.5278 8.3366 6.23607 8.3366 5.93983C8.3366 5.64359 8.24267 5.35186 8.07828 5.14284C7.91507 4.93231 7.68729 4.81201 7.45597 4.81201C7.22466 4.81201 6.99687 4.93231 6.83367 5.14284C6.66928 5.35186 6.57535 5.64359 6.57535 5.93983C6.57535 6.23607 6.66928 6.5278 6.83367 6.73682C6.99687 6.94735 7.22466 7.06765 7.45597 7.06765Z" fill="black"/>
<path d="M10.274 7.06765C10.5053 7.06765 10.7331 6.94735 10.8963 6.73682C11.0607 6.5278 11.1546 6.23607 11.1546 5.93983C11.1546 5.64359 11.0607 5.35186 10.8963 5.14284C10.7331 4.93231 10.5053 4.81201 10.274 4.81201C10.0427 4.81201 9.81487 4.93231 9.65166 5.14284C9.48727 5.35186 9.39334 5.64359 9.39334 5.93983C9.39334 6.23607 9.48727 6.5278 9.65166 6.73682C9.81487 6.94735 10.0427 7.06765 10.274 7.06765Z" fill="black"/>
<path d="M14.0313 7.06765H49.726C50.2124 7.06765 50.6067 6.56269 50.6067 5.93983C50.6067 5.31697 50.2124 4.81201 49.726 4.81201H14.0313C13.545 4.81201 13.1507 5.31697 13.1507 5.93983C13.1507 6.56269 13.545 7.06765 14.0313 7.06765Z" fill="black"/>
<path d="M53.4834 7.06765H55.362C55.8484 7.06765 56.2427 6.56269 56.2427 5.93983C56.2427 5.31697 55.8484 4.81201 55.362 4.81201H53.4834C52.997 4.81201 52.6028 5.31697 52.6028 5.93983C52.6028 6.56269 52.997 7.06765 53.4834 7.06765Z" fill="black"/>
<path d="M51.6047 16.842H34.6967C33.1752 16.842 31.9374 18.4273 31.9374 20.3759V20.4511H30.9393C29.4179 20.4511 28.18 22.0363 28.18 23.9849V33.6841H26.184V29.9999C26.184 28.0514 24.9462 26.4661 23.4247 26.4661H8.39531C6.87383 26.4661 5.63602 28.0514 5.63602 29.9999V39.624C5.63602 41.5726 6.87383 43.1578 8.39531 43.1578H23.4247C24.9462 43.1578 26.184 41.5726 26.184 39.624V35.9398H28.18V45.639C28.18 47.5876 29.4179 49.1729 30.9393 49.1729H31.9374V49.2481C31.9374 51.1966 33.1752 52.7819 34.6967 52.7819H51.6047C53.1262 52.7819 54.364 51.1966 54.364 49.2481V46.842C54.364 44.8935 53.1262 43.3082 51.6047 43.3082H34.6967C33.1752 43.3082 31.9374 44.8935 31.9374 46.842V46.9172H30.9393C30.389 46.9172 29.9413 46.3438 29.9413 45.639V35.9398H31.9374V36.015C31.9374 37.9635 33.1752 39.5488 34.6967 39.5488H51.6047C53.1262 39.5488 54.364 37.9635 54.364 36.015V33.609C54.364 31.6604 53.1262 30.0751 51.6047 30.0751H34.6967C33.1752 30.0751 31.9374 31.6604 31.9374 33.609V33.6841H29.9413V23.9849C29.9413 23.2801 30.389 22.7067 30.9393 22.7067H31.9374V22.7819C31.9374 24.7305 33.1752 26.3157 34.6967 26.3157H51.6047C53.1262 26.3157 54.364 24.7305 54.364 22.7819V20.3759C54.364 18.4273 53.1262 16.842 51.6047 16.842ZM24.4227 39.624C24.4227 40.3288 23.975 40.9022 23.4247 40.9022H8.39531C7.84498 40.9022 7.39727 40.3288 7.39727 39.624V29.9999C7.39727 29.2951 7.84498 28.7217 8.39531 28.7217H23.4247C23.975 28.7217 24.4227 29.2951 24.4227 29.9999V39.624ZM33.6986 46.842C33.6986 46.1372 34.1463 45.5638 34.6967 45.5638H51.6047C52.155 45.5638 52.6027 46.1372 52.6027 46.842V49.2481C52.6027 49.9529 52.155 50.5263 51.6047 50.5263H34.6967C34.1463 50.5263 33.6986 49.9529 33.6986 49.2481V46.842ZM33.6986 33.609C33.6986 32.9041 34.1463 32.3308 34.6967 32.3308H51.6047C52.155 32.3308 52.6027 32.9041 52.6027 33.609V36.015C52.6027 36.7198 52.155 37.2932 51.6047 37.2932H34.6967C34.1463 37.2932 33.6986 36.7198 33.6986 36.015V33.609ZM52.6027 22.7819C52.6027 23.4867 52.155 24.0601 51.6047 24.0601H34.6967C34.1463 24.0601 33.6986 23.4867 33.6986 22.7819V20.3759C33.6986 19.6711 34.1463 19.0977 34.6967 19.0977H51.6047C52.155 19.0977 52.6027 19.6711 52.6027 20.3759V22.7819Z" fill="black"/>
<path d="M55.362 0H4.63796C2.08063 0 0 2.66466 0 5.93985V54.0601C0 57.3353 2.08063 60 4.63796 60H55.362C57.9194 60 60 57.3353 60 54.0601V5.93985C60 2.66466 57.9194 0 55.362 0ZM4.63796 2.25564H55.362C56.9482 2.25564 58.2387 3.90842 58.2387 5.93985V9.62406H1.76125V5.93985C1.76125 3.90842 3.05178 2.25564 4.63796 2.25564ZM55.362 57.7444H4.63796C3.05178 57.7444 1.76125 56.0916 1.76125 54.0601V11.8797H58.2387V54.0601C58.2387 56.0916 56.9482 57.7444 55.362 57.7444Z" fill="black"/>
</svg>
