<svg width="60" height="60" viewBox="0 0 60 60" fill="none" xmlns="http://www.w3.org/2000/svg">
<path d="M46.4711 0H13.5289C6.06889 0 0 6.06889 0 13.5289V46.4711C0 53.9311 6.06889 60 13.5289 60H46.4711C53.9311 60 60 53.9311 60 46.4711V13.5289C60 6.06889 53.9311 0 46.4711 0ZM57.7778 46.4711C57.7778 52.7056 52.7056 57.7778 46.4711 57.7778H13.5289C7.29444 57.7778 2.22222 52.7056 2.22222 46.4711V13.5289C2.22222 7.29444 7.29444 2.22222 13.5289 2.22222H46.4711C52.7056 2.22222 57.7778 7.29444 57.7778 13.5289V46.4711Z" fill="black"/>
<path d="M22.0444 13.3333L12.8889 44.4444H16.3555L19.2889 34.3999H28.5333L31.6 44.4444H35.2L25.7333 13.3333H22.0444ZM20.1333 31.111L23.8666 18.4888L27.7333 31.111H20.1333Z" fill="black"/>
<path d="M40.9544 12.8889C40.4655 12.8889 40.0355 13.0745 39.6655 13.4445C39.2944 13.8156 39.11 14.2378 39.11 14.7122C39.11 15.1867 39.2944 15.6089 39.6655 15.9789C40.0355 16.35 40.4655 16.5345 40.9544 16.5345C41.4433 16.5345 41.8655 16.3567 42.2211 16.0022C42.5767 15.6467 42.7544 15.2167 42.7544 14.7134C42.7544 14.21 42.5778 13.7778 42.2222 13.4222C41.8667 13.0667 41.4444 12.8889 40.9544 12.8889Z" fill="black"/>
<path d="M42.4878 22.1777H39.2878V44.4444H42.4878V22.1777Z" fill="black"/>
</svg>
