<svg width="60" height="60" viewBox="0 0 60 60" fill="none" xmlns="http://www.w3.org/2000/svg">
<path d="M46.4711 0H13.5289C6.06889 0 0 6.06889 0 13.5289V46.4711C0 53.9311 6.06889 60 13.5289 60H46.4711C53.9311 60 60 53.9311 60 46.4711V13.5289C60 6.06889 53.9311 0 46.4711 0ZM57.7778 46.4711C57.7778 52.7056 52.7056 57.7778 46.4711 57.7778H13.5289C7.29444 57.7778 2.22222 52.7056 2.22222 46.4711V13.5289C2.22222 7.29444 7.29444 2.22222 13.5289 2.22222H46.4711C52.7056 2.22222 57.7778 7.29444 57.7778 13.5289V46.4711Z" fill="black"/>
<path d="M15.0667 16.2666L18 16.3555V44.4444H21.2V13.3333H15.0667V16.2666Z" fill="black"/>
<path d="M41.2889 23.0666C40.0145 22.2377 38.4511 21.8221 36.6 21.8221C34.7489 21.8221 33.1711 22.1044 31.8667 22.6677C29.3478 23.8233 28.0889 25.9566 28.0889 29.0677V37.4677C28.0889 40.4021 29.2445 42.461 31.5556 43.6466C33.3034 44.5355 35.2589 44.9799 37.4223 44.9799C39.5845 44.9799 41.94 44.8021 44.4889 44.4466V13.3333H41.2889V23.0666ZM41.2889 41.6444C39.7778 41.881 38.2367 41.9999 36.6667 41.9999C35.0956 41.9999 33.7778 41.601 32.7111 40.7999C31.7334 40.031 31.2445 38.9633 31.2445 37.5999V29.6888C31.2445 28.2966 31.6367 27.1488 32.4223 26.2444C33.2067 25.341 34.4734 24.8888 36.2223 24.8888C38.0589 24.8888 39.7478 25.3033 41.2889 26.1321V41.6444V41.6444Z" fill="black"/>
</svg>
