<svg width="60" height="60" viewBox="0 0 60 60" fill="none" xmlns="http://www.w3.org/2000/svg">
<path d="M46.4711 0H13.5289C6.06889 0 0 6.06889 0 13.5289V46.4711C0 53.9311 6.06889 60 13.5289 60H46.4711C53.9311 60 60 53.9311 60 46.4711V13.5289C60 6.06889 53.9311 0 46.4711 0ZM57.7778 46.4711C57.7778 52.7056 52.7056 57.7778 46.4711 57.7778H13.5289C7.29444 57.7778 2.22222 52.7056 2.22222 46.4711V13.5289C2.22222 7.29444 7.29444 2.22222 13.5289 2.22222H46.4711C52.7056 2.22222 57.7778 7.29444 57.7778 13.5289V46.4711Z" fill="black"/>
<path d="M22.1333 13.3333H11.4222V44.4444H14.6222V34.2221H22.4444C23.9555 34.2221 25.2589 33.9488 26.3555 33.3999C27.4511 32.8521 28.2667 32.2166 28.8 31.4888C29.3333 30.7633 29.7555 29.8299 30.0667 28.6888C30.3778 27.5488 30.5622 26.5999 30.6222 25.8433C30.6811 25.0877 30.7111 24.1921 30.7111 23.1544C30.7111 20.221 30.0067 17.851 28.6 16.0444C27.1922 14.2366 25.0367 13.3333 22.1333 13.3333ZM27.4889 25.111C27.4733 25.5555 27.37 26.2221 27.1778 27.1121C26.9855 28.001 26.7178 28.6821 26.3778 29.1566C26.0367 29.631 25.4955 30.0744 24.7555 30.4899C24.0144 30.9033 23.1111 31.111 22.0444 31.111H14.6222V16.4444H21.8667C25.6289 16.4444 27.5111 18.6966 27.5111 23.1999C27.5111 24.0299 27.5033 24.6666 27.4889 25.111Z" fill="black"/>
<path d="M45.8 32.7112C44.6289 32.2368 43.4511 31.8079 42.2667 31.4223C41.0811 31.0368 40.0144 30.5634 39.0667 30.0001C38.1178 29.4379 37.6444 28.6668 37.6444 27.689C37.6444 26.8001 38.0222 26.0668 38.7778 25.4901C39.5333 24.9112 40.6811 24.6234 42.2222 24.6234C43.7622 24.6234 45.0067 24.9945 45.9556 25.7345L46.9778 22.9334L46.4444 22.6223C46.0889 22.4145 45.4956 22.2001 44.6667 21.9779C43.8367 21.7556 42.9478 21.6445 42 21.6445C39.3033 21.6445 37.3556 22.2879 36.1556 23.5768C34.9556 24.8656 34.3556 26.259 34.3556 27.7556C34.3556 29.2523 34.9033 30.5179 36 31.5556C36.8889 32.4445 37.9189 33.0968 39.0889 33.5112C40.2589 33.9268 41.4222 34.319 42.5778 34.689C43.7333 35.0601 44.7111 35.5634 45.5111 36.2001C46.3111 36.8368 46.7111 37.6968 46.7111 38.7779C46.7111 39.859 46.2444 40.689 45.3111 41.2656C44.3778 41.8445 43.2733 42.1323 42 42.1323C40.7267 42.1323 39.6 41.829 38.6222 41.2212C37.6444 40.6145 37.0956 39.7623 36.9778 38.6656L33.8667 38.799C33.9256 40.5768 34.6811 42.0734 36.1333 43.2879C37.5844 44.5023 39.5922 45.1101 42.1556 45.1101C44.7178 45.1101 46.6667 44.4945 48 43.2668C49.3333 42.0379 50 40.5934 50 38.9334C50 37.2745 49.5922 35.9412 48.7778 34.9334C47.9633 33.9256 46.97 33.1856 45.8 32.7112Z" fill="black"/>
</svg>
