<svg width="60" height="60" viewBox="0 0 60 60" fill="none" xmlns="http://www.w3.org/2000/svg">
<path d="M44.6339 0.292875C44.5178 0.200018 44.38 0.12636 44.2284 0.0761085C44.0767 0.0258568 43.9142 -4.78443e-06 43.75 6.63907e-10H8.75C6.43016 0.00208435 4.20607 0.740252 2.56569 2.05255C0.925315 3.36486 0.00260543 5.14412 0 7V53C0.00260543 54.8559 0.925315 56.6351 2.56569 57.9474C4.20607 59.2597 6.43016 59.9979 8.75 60H51.25C53.5698 59.9979 55.7939 59.2597 57.4343 57.9474C59.0747 56.6351 59.9974 54.8559 60 53V13C60 12.8687 59.9677 12.7386 59.9049 12.6173C59.8421 12.496 59.75 12.3857 59.6339 12.2929L44.6339 0.292875ZM45 3.41412L55.7323 12H51.25C49.593 11.9985 48.0043 11.4712 46.8326 10.5339C45.6609 9.59653 45.0019 8.32563 45 7V3.41412ZM8.75 2H42.5V7C42.5026 8.85588 43.4253 10.6351 45.0657 11.9474C46.7061 13.2597 48.9302 13.9979 51.25 14H57.5V42H2.5V7C2.50186 5.67437 3.16094 4.40347 4.33264 3.46611C5.50434 2.52875 7.09297 2.00149 8.75 2V2ZM51.25 58H8.75C7.09297 57.9985 5.50434 57.4712 4.33264 56.5339C3.16094 55.5965 2.50186 54.3256 2.5 53V44H57.5V53C57.4981 54.3256 56.8391 55.5965 55.6674 56.5339C54.4957 57.4712 52.907 57.9985 51.25 58V58Z" fill="black"/>
<path d="M40 46H37.5C37.1685 46 36.8505 46.1054 36.6161 46.2929C36.3817 46.4804 36.25 46.7348 36.25 47V55C36.25 55.2652 36.3817 55.5196 36.6161 55.7071C36.8505 55.8946 37.1685 56 37.5 56C37.8315 56 38.1495 55.8946 38.3839 55.7071C38.6183 55.5196 38.75 55.2652 38.75 55V52H40C40.9946 52 41.9484 51.6839 42.6516 51.1213C43.3549 50.5587 43.75 49.7956 43.75 49C43.75 48.2044 43.3549 47.4413 42.6516 46.8787C41.9484 46.3161 40.9946 46 40 46ZM40 50H38.75V48H40C40.3315 48 40.6495 48.1054 40.8839 48.2929C41.1183 48.4804 41.25 48.7348 41.25 49C41.25 49.2652 41.1183 49.5196 40.8839 49.7071C40.6495 49.8946 40.3315 50 40 50Z" fill="black"/>
<path d="M20 46H17.5C17.1685 46 16.8505 46.1054 16.6161 46.2929C16.3817 46.4804 16.25 46.7348 16.25 47V55C16.25 55.2652 16.3817 55.5196 16.6161 55.7071C16.8505 55.8946 17.1685 56 17.5 56C17.8315 56 18.1495 55.8946 18.3839 55.7071C18.6183 55.5196 18.75 55.2652 18.75 55V52H20C20.9946 52 21.9484 51.6839 22.6517 51.1213C23.3549 50.5587 23.75 49.7956 23.75 49C23.75 48.2044 23.3549 47.4413 22.6517 46.8787C21.9484 46.3161 20.9946 46 20 46ZM20 50H18.75V48H20C20.3315 48 20.6495 48.1054 20.8839 48.2929C21.1183 48.4804 21.25 48.7348 21.25 49C21.25 49.2652 21.1183 49.5196 20.8839 49.7071C20.6495 49.8946 20.3315 50 20 50Z" fill="black"/>
<path d="M32.5 46C32.1685 46 31.8505 46.1054 31.6161 46.2929C31.3817 46.4804 31.25 46.7348 31.25 47V50H28.75V47C28.75 46.7348 28.6183 46.4804 28.3839 46.2929C28.1495 46.1054 27.8315 46 27.5 46C27.1685 46 26.8505 46.1054 26.6161 46.2929C26.3817 46.4804 26.25 46.7348 26.25 47V55C26.25 55.2652 26.3817 55.5196 26.6161 55.7071C26.8505 55.8946 27.1685 56 27.5 56C27.8315 56 28.1495 55.8946 28.3839 55.7071C28.6183 55.5196 28.75 55.2652 28.75 55V52H31.25V55C31.25 55.2652 31.3817 55.5196 31.6161 55.7071C31.8505 55.8946 32.1685 56 32.5 56C32.8315 56 33.1495 55.8946 33.3839 55.7071C33.6183 55.5196 33.75 55.2652 33.75 55V47C33.75 46.7348 33.6183 46.4804 33.3839 46.2929C33.1495 46.1054 32.8315 46 32.5 46Z" fill="black"/>
<path d="M19.1161 31.7072C19.3506 31.8947 19.6685 32.0001 20 32.0001C20.3316 32.0001 20.6495 31.8947 20.884 31.7072C21.1184 31.5196 21.2501 31.2652 21.2501 31C21.2501 30.7348 21.1184 30.4804 20.884 30.2929L14.2677 25L20.884 19.7071C21.1184 19.5196 21.2501 19.2652 21.2501 19C21.2501 18.7348 21.1184 18.4804 20.884 18.2929C20.6495 18.1054 20.3316 18 20 18C19.6685 18 19.3506 18.1054 19.1161 18.2929L11.6161 24.2929C11.5001 24.3858 11.408 24.496 11.3452 24.6173C11.2823 24.7387 11.25 24.8687 11.25 25C11.25 25.1314 11.2823 25.2614 11.3452 25.3827C11.408 25.504 11.5001 25.6143 11.6161 25.7071L19.1161 31.7072Z" fill="black"/>
<path d="M39.1161 31.7072C39.2322 31.8 39.37 31.8737 39.5217 31.9239C39.6733 31.9742 39.8359 32.0001 40 32.0001C40.1642 32.0001 40.3268 31.9742 40.4784 31.9239C40.6301 31.8737 40.7679 31.8 40.884 31.7072L48.384 25.7072C48.5 25.6143 48.5921 25.5041 48.6549 25.3827C48.7178 25.2614 48.7501 25.1314 48.7501 25C48.7501 24.8687 48.7178 24.7387 48.6549 24.6173C48.5921 24.496 48.5 24.3858 48.384 24.2929L40.884 18.2929C40.6495 18.1054 40.3316 18 40 18C39.6685 18 39.3506 18.1054 39.1161 18.2929C38.8817 18.4804 38.75 18.7348 38.75 19C38.75 19.2653 38.8817 19.5196 39.1161 19.7072L45.7324 25L39.1161 30.2929C39.0001 30.3858 38.908 30.496 38.8452 30.6173C38.7823 30.7387 38.75 30.8687 38.75 31C38.75 31.1314 38.7823 31.2614 38.8452 31.3827C38.908 31.504 39.0001 31.6143 39.1161 31.7072V31.7072Z" fill="black"/>
<path d="M30 34C30.6904 34 31.25 33.5523 31.25 33C31.25 32.4477 30.6904 32 30 32C29.3096 32 28.75 32.4477 28.75 33C28.75 33.5523 29.3096 34 30 34Z" fill="black"/>
<path d="M25 22C25.3315 22 25.6495 21.8946 25.8839 21.7071C26.1183 21.5195 26.25 21.2652 26.25 21C26.25 20.4066 26.4699 19.8266 26.882 19.3332C27.294 18.8399 27.8797 18.4554 28.5649 18.2283C29.2502 18.0013 30.0042 17.9418 30.7316 18.0576C31.459 18.1734 32.1272 18.4591 32.6516 18.8786C33.1761 19.2982 33.5333 19.8327 33.6779 20.4147C33.8226 20.9966 33.7484 21.5998 33.4645 22.148C33.1807 22.6962 32.7001 23.1647 32.0834 23.4944C31.4667 23.824 30.7417 24 30 24C29.6685 24 29.3505 24.1053 29.1161 24.2929C28.8817 24.4804 28.75 24.7347 28.75 25V29C28.75 29.2652 28.8817 29.5195 29.1161 29.7071C29.3505 29.8946 29.6685 30 30 30C30.3315 30 30.6495 29.8946 30.8839 29.7071C31.1183 29.5195 31.25 29.2652 31.25 29V25.9C32.4086 25.7108 33.4764 25.2625 34.3293 24.6072C35.1822 23.9519 35.7852 23.1164 36.0683 22.1979C36.3514 21.2794 36.3029 20.3155 35.9285 19.4181C35.5542 18.5207 34.8693 17.7267 33.9533 17.1283C33.0374 16.5299 31.9281 16.1517 30.7542 16.0375C29.5803 15.9234 28.39 16.078 27.3216 16.4834C26.2531 16.8888 25.3504 17.5284 24.7182 18.3279C24.086 19.1274 23.7502 20.0539 23.75 21C23.75 21.2652 23.8817 21.5195 24.1161 21.7071C24.3505 21.8946 24.6685 22 25 22Z" fill="black"/>
</svg>
