<svg width="46" height="46" viewBox="0 0 46 46" fill="none" xmlns="http://www.w3.org/2000/svg">
<path d="M23 0C18.941 0 16.187 0.969 14.437 2.375C12.688 3.781 12 5.59 12 7.094V12H22V13H7.094C5.266 13 3.41 13.793 2.094 15.469C0.777 17.145 0 19.645 0 23C0 26.355 0.777 28.855 2.094 30.531C3.41 32.207 5.266 33 7.094 33H12V38.906C12 40.41 12.688 42.219 14.438 43.625C16.188 45.031 18.94 46 23 46C27.059 46 29.813 45.031 31.563 43.625C33.313 42.219 34 40.41 34 38.906V34H24V33H38.906C40.734 33 42.59 32.207 43.906 30.531C45.223 28.855 46 26.355 46 23C46 19.645 45.223 17.145 43.906 15.469C42.59 13.793 40.734 13 38.906 13H34V7.094C34 5.551 33.316 3.738 31.562 2.344C29.81 0.949 27.056 0 23 0ZM23 2C26.746 2 29.016 2.875 30.313 3.906C31.608 4.938 32 6.136 32 7.094V19C32 19.7956 31.6839 20.5587 31.1213 21.1213C30.5587 21.6839 29.7956 22 29 22H17C14.941 22 13.168 23.27 12.406 25.063C12.2701 25.3638 12.1655 25.6778 12.094 26C12.0289 26.3293 11.9974 26.6643 12 27V31H7.094C5.824 31 4.648 30.504 3.688 29.281C2.726 28.06 2 26.043 2 23C2 19.957 2.727 17.941 3.688 16.719C4.647 15.496 5.824 15 7.094 15H24V10H14V7.094C14 6.199 14.387 4.98 15.688 3.938C16.988 2.894 19.258 2 23 2ZM18 5C16.898 5 16 5.898 16 7C16 8.102 16.898 9 18 9C19.102 9 20 8.102 20 7C20 5.898 19.102 5 18 5ZM34 15H38.906C40.176 15 41.352 15.496 42.313 16.719C43.273 17.94 44 19.957 44 23C44 26.043 43.273 28.059 42.312 29.281C41.352 30.504 40.176 31 38.906 31H22V36H32V38.906C32 39.801 31.613 41.02 30.312 42.063C29.012 43.105 26.742 44 23 44C19.258 44 16.988 43.105 15.687 42.062C14.387 41.02 14 39.801 14 38.907V27C14.0026 26.2052 14.3196 25.4436 14.8816 24.8816C15.4436 24.3196 16.2052 24.0026 17 24H29C31.746 24 34 21.746 34 19V15ZM28 37C26.898 37 26 37.898 26 39C26 40.102 26.898 41 28 41C29.102 41 30 40.102 30 39C30 37.898 29.102 37 28 37Z" fill="black"/>
</svg>
