<svg width="60" height="60" viewBox="0 0 60 60" fill="none" xmlns="http://www.w3.org/2000/svg">
<path d="M44.6339 0.292875C44.5178 0.200018 44.38 0.12636 44.2284 0.0761085C44.0767 0.0258568 43.9142 -4.78443e-06 43.75 6.63907e-10H8.75C6.43017 0.00211736 4.20611 0.740295 2.56574 2.05259C0.925369 3.36489 0.0026467 5.14413 0 7V53C0.0026467 54.8559 0.925369 56.6351 2.56574 57.9474C4.20611 59.2597 6.43017 59.9979 8.75 60H51.25C53.5698 59.9979 55.7939 59.2597 57.4343 57.9474C59.0747 56.6351 59.9974 54.8559 60 53V13C60 12.8687 59.9677 12.7386 59.9049 12.6173C59.8421 12.496 59.75 12.3857 59.6339 12.2929L44.6339 0.292875ZM45 3.41412L55.7323 12H51.25C49.593 11.9985 48.0043 11.4712 46.8326 10.5339C45.6609 9.59653 45.0019 8.32563 45 7V3.41412ZM8.75 2H42.5V7C42.5026 8.85588 43.4253 10.6351 45.0657 11.9474C46.7061 13.2597 48.9302 13.9979 51.25 14H57.5V42H2.5V7C2.50186 5.67437 3.16094 4.40347 4.33264 3.46611C5.50434 2.52875 7.09297 2.00149 8.75 2V2ZM51.25 58H8.75C7.09297 57.9985 5.50434 57.4712 4.33264 56.5339C3.16094 55.5965 2.50186 54.3256 2.5 53V44H57.5V53C57.4981 54.3256 56.8391 55.5965 55.6674 56.5339C54.4957 57.4712 52.907 57.9985 51.25 58V58Z" fill="black"/>
<path d="M18.75 48H21.25C21.5815 48 21.8995 47.8946 22.1339 47.7071C22.3683 47.5196 22.5 47.2652 22.5 47C22.5 46.7348 22.3683 46.4804 22.1339 46.2929C21.8995 46.1054 21.5815 46 21.25 46H18.75C17.7554 46 16.8016 46.3161 16.0983 46.8787C15.3951 47.4413 15 48.2044 15 49C15 49.7956 15.3951 50.5587 16.0983 51.1213C16.8016 51.6839 17.7554 52 18.75 52C19.0815 52 19.3995 52.1054 19.6339 52.2929C19.8683 52.4804 20 52.7348 20 53C20 53.2652 19.8683 53.5196 19.6339 53.7071C19.3995 53.8946 19.0815 54 18.75 54H16.25C15.9185 54 15.6005 54.1054 15.3661 54.2929C15.1317 54.4804 15 54.7348 15 55C15 55.2652 15.1317 55.5196 15.3661 55.7071C15.6005 55.8946 15.9185 56 16.25 56H18.75C19.7446 56 20.6984 55.6839 21.4017 55.1213C22.1049 54.5587 22.5 53.7956 22.5 53C22.5 52.2044 22.1049 51.4413 21.4017 50.8787C20.6984 50.3161 19.7446 50 18.75 50C18.4185 50 18.1005 49.8946 17.8661 49.7071C17.6317 49.5196 17.5 49.2652 17.5 49C17.5 48.7348 17.6317 48.4804 17.8661 48.2929C18.1005 48.1054 18.4185 48 18.75 48Z" fill="black"/>
<path d="M43.75 54H40V47C40 46.7348 39.8683 46.4804 39.6339 46.2929C39.3995 46.1054 39.0815 46 38.75 46C38.4185 46 38.1005 46.1054 37.8661 46.2929C37.6317 46.4804 37.5 46.7348 37.5 47V55C37.5 55.2652 37.6317 55.5196 37.8661 55.7071C38.1005 55.8946 38.4185 56 38.75 56H43.75C44.0815 56 44.3995 55.8946 44.6339 55.7071C44.8683 55.5196 45 55.2652 45 55C45 54.7348 44.8683 54.4804 44.6339 54.2929C44.3995 54.1054 44.0815 54 43.75 54Z" fill="black"/>
<path d="M34.0959 53.8625C34.6976 52.9856 35.0088 52.0002 35 51C35 48.243 32.757 46 30 46C27.243 46 25 48.243 25 51C25 53.757 27.243 56 30 56C30.8753 55.9951 31.7271 55.7728 32.4375 55.3638L32.8667 55.7071C32.9828 55.8 33.1206 55.8736 33.2723 55.9239C33.4239 55.9742 33.5865 56 33.7506 56C33.9148 56 34.0773 55.9742 34.229 55.9239C34.3807 55.8736 34.5185 55.8 34.6345 55.7071C34.7506 55.6143 34.8427 55.504 34.9055 55.3827C34.9683 55.2614 35.0007 55.1313 35.0007 55C35.0007 54.8687 34.9683 54.7386 34.9055 54.6173C34.8427 54.496 34.7506 54.3857 34.6345 54.2929L34.0959 53.8625ZM30 54C28.6448 54 27.5 52.6261 27.5 51C27.5 49.3739 28.6448 48 30 48C31.3552 48 32.5 49.3739 32.5 51C32.5015 51.4627 32.4061 51.9224 32.2177 52.3599L30.8839 51.2929C30.7678 51.2 30.63 51.1264 30.4784 51.0761C30.3267 51.0258 30.1642 51 30 51C29.8358 51 29.6733 51.0258 29.5216 51.0761C29.37 51.1264 29.2322 51.2 29.1161 51.2929C29 51.3857 28.9079 51.496 28.8451 51.6173C28.7823 51.7386 28.75 51.8687 28.75 52C28.75 52.1313 28.7823 52.2614 28.8451 52.3827C28.9079 52.504 29 52.6143 29.1161 52.7071L30.613 53.9046C30.418 53.9671 30.21 53.9995 30 54V54Z" fill="black"/>
<path d="M21.7739 35.3904C23.9852 35.7835 26.9063 36 30 36C33.0937 36 36.0156 35.7835 38.2261 35.3904C40.0609 35.0642 42.5 34.4615 42.5 33V15C42.5 13.5385 40.0609 12.9357 38.2261 12.6096C36.0156 12.2165 33.0937 12 30 12C26.9063 12 23.9844 12.2165 21.7739 12.6096C19.9392 12.9357 17.5 13.5385 17.5 15V33C17.5 34.4615 19.9392 35.0642 21.7739 35.3904ZM30 34C24.2588 34 20.7614 33.2432 20 32.7972V28.9944C20.5805 29.1556 21.1729 29.2879 21.7739 29.3904C23.9852 29.7835 26.9063 30 30 30C33.0937 30 36.0156 29.7835 38.2261 29.3904C38.8271 29.2879 39.4195 29.1556 40 28.9944V32.7972C39.2386 33.2432 35.7411 34 30 34ZM20 22.9944C20.5805 23.1556 21.1729 23.2879 21.7739 23.3904C23.9852 23.7835 26.9063 24 30 24C33.0937 24 36.0156 23.7835 38.2261 23.3904C38.8271 23.2879 39.4195 23.1556 40 22.9944V26.7964C39.2427 27.2421 35.7459 28 30 28C24.2541 28 20.7573 27.2421 20 26.7964V22.9944ZM20 16.9944C20.5805 17.1556 21.1729 17.2879 21.7739 17.3904C23.9852 17.7835 26.9063 18 30 18C33.0937 18 36.0156 17.7835 38.2261 17.3904C38.8271 17.2879 39.4195 17.1556 40 16.9944V20.7964C39.2427 21.2421 35.7459 22 30 22C24.2541 22 20.7573 21.2421 20 20.7964V16.9944ZM30 14C34.9375 14 38.2148 14.5597 39.5206 15C38.2148 15.4403 34.937 16 30 16C25.063 16 21.785 15.4403 20.4795 15C21.785 14.5597 25.0625 14 30 14Z" fill="black"/>
</svg>
