<svg width="60" height="60" viewBox="0 0 60 60" fill="none" xmlns="http://www.w3.org/2000/svg">
<path d="M16.9275 36.0044C16.516 36.0044 16.1463 35.7557 15.9931 35.376L12.9051 27.6905L9.8166 35.376C9.65801 35.7713 9.26519 36.0235 8.83752 36.0044C8.40985 35.9853 8.04159 35.699 7.91932 35.2905L4.90253 25.2836C4.74295 24.7544 5.04493 24.1964 5.57718 24.0381C6.10895 23.8793 6.66969 24.1798 6.82927 24.7095L9.01821 31.9713L11.9707 24.6245C12.1229 24.2438 12.4931 23.9941 12.9051 23.9941C13.3166 23.9941 13.6868 24.2438 13.839 24.6245L16.7915 31.9713L18.9809 24.7095C19.14 24.1798 19.7007 23.8793 20.2325 24.0381C20.7648 24.1964 21.0667 24.7544 20.9076 25.2836L17.8908 35.2905C17.7681 35.6985 17.3988 35.9844 16.9717 36.0034L16.9275 36.0044Z" fill="black"/>
<path d="M34.0226 36.0044C33.6112 36.0044 33.2414 35.7557 33.0882 35.376L30.0002 27.6905L26.9118 35.376C26.7532 35.7713 26.3604 36.0235 25.9327 36.0044C25.505 35.9853 25.1367 35.699 25.0145 35.2905L21.9977 25.2836C21.8381 24.7544 22.1401 24.1964 22.6723 24.0381C23.2041 23.8793 23.7649 24.1798 23.9244 24.7095L26.1134 31.9713L29.0658 24.6245C29.2181 24.2438 29.5883 23.9941 30.0002 23.9941C30.4117 23.9941 30.7819 24.2438 30.9342 24.6245L33.8866 31.9713L36.0761 24.7095C36.2351 24.1798 36.7959 23.8793 37.3277 24.0381C37.8599 24.1964 38.1619 24.7544 38.0028 25.2836L34.986 35.2905C34.8633 35.6985 34.495 35.9844 34.0678 36.0034L34.0226 36.0044Z" fill="black"/>
<path d="M52.1234 36.0044C51.7119 36.0044 51.3422 35.7557 51.189 35.376L48.101 27.6905L45.0125 35.376C44.8539 35.7713 44.4611 36.0235 44.0334 36.0044C43.6058 35.9853 43.2375 35.699 43.1152 35.2905L40.0984 25.2836C39.9389 24.7544 40.2408 24.1964 40.7731 24.0381C41.3049 23.8793 41.8656 24.1798 42.0252 24.7095L44.2141 31.9713L47.1666 24.6245C47.3188 24.2438 47.689 23.9941 48.101 23.9941C48.5125 23.9941 48.8827 24.2438 49.0349 24.6245L51.9874 31.9713L54.1768 24.7095C54.3359 24.1798 54.8966 23.8793 55.4284 24.0381C55.9607 24.1964 56.2626 24.7544 56.1036 25.2836L53.0868 35.2905C52.964 35.6985 52.5957 35.9844 52.1686 36.0034L52.1234 36.0044Z" fill="black"/>
<path d="M59.849 25.6681C57.6787 10.927 44.9718 0 30.0002 0C15.0282 0 2.32176 10.927 0.150987 25.6681C-0.050329 28.5525 -0.050329 31.4475 0.150987 34.3319C2.32176 49.0735 15.0282 60 30.0002 60C44.9718 60 57.6787 49.0735 59.849 34.3319C60.0503 31.4475 60.0503 28.5525 59.849 25.6681V25.6681ZM57.8643 33.9859C56.9785 36.9596 54.2348 39.0016 51.1178 39.0065H8.8827C5.76525 39.0016 3.02146 36.9601 2.13616 33.9859C1.94712 31.3322 1.94712 28.6683 2.13616 26.0146C3.02146 23.0404 5.76525 20.9984 8.8827 20.994H51.1178C54.2348 20.9989 56.9785 23.0404 57.8643 26.0146C58.0534 28.6683 58.0534 31.3322 57.8643 33.9859ZM31.0058 41.0079H43.8454C43.3519 43.1822 42.6684 45.3102 41.8028 47.3663C38.2621 46.54 34.6423 46.0944 31.0058 46.0372V41.0079ZM28.9946 18.9926H16.1551C16.6481 16.8178 17.3316 14.6903 18.1972 12.6342C21.7384 13.4576 25.3582 13.9022 28.9946 13.9599V18.9926ZM56.599 20.8499C55.0277 19.6459 53.1005 18.9931 51.1178 18.9926H45.9067C45.3985 16.6458 44.6796 14.3493 43.7585 12.131C45.7652 11.5607 47.7205 10.8244 49.603 9.92923C52.7578 12.9777 55.153 16.7171 56.599 20.8499ZM47.9763 8.47901C46.3363 9.2095 44.6438 9.81734 42.9129 10.2977C41.6049 7.51887 39.7479 5.03034 37.4524 2.98155C41.3142 4.04674 44.902 5.92109 47.9763 8.47901ZM31.0058 2.05269C34.8191 2.53691 38.3544 5.74421 40.9317 10.7877C37.6719 11.5133 34.3457 11.9062 31.0058 11.9594V2.05269ZM41.8028 12.6342C42.6684 14.6903 43.3519 16.8178 43.8454 18.9926H31.0058V13.9599C34.6418 13.9022 38.2616 13.4576 41.8028 12.6342ZM28.9946 2.05269V11.9594C25.6543 11.9057 22.3281 11.5128 19.0683 10.7868C21.6456 5.74421 25.1814 2.53691 28.9946 2.05269ZM22.5486 2.98155C20.2531 5.02936 18.3961 7.51692 17.088 10.2957C15.3572 9.81441 13.6647 9.20656 12.0242 8.47608C15.0984 5.91865 18.6868 4.04528 22.5486 2.98155ZM10.397 9.93314C12.28 10.8288 14.2357 11.5651 16.2425 12.1349C15.3214 14.3522 14.602 16.6473 14.0924 18.9926H8.8827C6.89949 18.9931 4.97226 19.6459 3.40101 20.8499C4.84754 16.7186 7.2432 12.9807 10.397 9.93314ZM3.40101 39.1536C4.97275 40.356 6.89998 41.0079 8.8827 41.0079H14.0924C14.6015 43.3542 15.3214 45.6507 16.2425 47.8695C14.2357 48.4393 12.28 49.1756 10.397 50.0708C7.24271 47.0223 4.84705 43.2829 3.40101 39.1506V39.1536ZM12.0242 51.5239C13.6647 50.7939 15.3572 50.1856 17.088 49.7048C18.3961 52.4831 20.2531 54.9706 22.5486 57.0189C18.6868 55.9537 15.098 54.0794 12.0242 51.521V51.5239ZM28.9946 57.9463C25.1814 57.4631 21.6456 54.2558 19.0683 49.2123C22.3281 48.4857 25.6543 48.0924 28.9946 48.0386V57.9463ZM18.1972 47.3663C17.3316 45.3102 16.6481 43.1822 16.1551 41.0079H28.9946V46.0372C25.3582 46.0944 21.7384 46.54 18.1972 47.3663ZM31.0058 57.9463V48.0396C34.3462 48.0933 37.6719 48.4867 40.9317 49.2132C38.3544 54.2558 34.82 57.4631 31.0058 57.9463ZM37.4524 57.0189C39.7474 54.9706 41.6044 52.4836 42.9129 49.7058C44.6438 50.1861 46.3363 50.7934 47.9763 51.5239C44.902 54.0809 41.3137 55.9542 37.4524 57.0189ZM49.603 50.0698C47.7205 49.1746 45.7652 48.4383 43.7585 47.8686C44.6796 45.6502 45.3985 43.3542 45.9067 41.0079H51.1178C53.1005 41.0069 55.0277 40.3541 56.599 39.1506C55.1525 43.2814 52.7573 47.0193 49.603 50.0669V50.0698Z" fill="black"/>
</svg>
