<svg width="782" height="728" viewBox="0 0 782 728" fill="none" xmlns="http://www.w3.org/2000/svg">
<path d="M420.805 31.7979C594.024 20.7729 772.066 70.3682 772.73 183.028L730.5 527C706.991 575.057 746.045 719.805 646.273 665.132C546.501 610.46 524.904 575.115 436.854 601.851C348.804 628.587 124.084 757.619 31.8362 636.28C-60.4112 514.941 127.25 332.251 355.194 291.381C583.137 250.511 237.735 110.088 420.805 31.7979Z" fill="#B0B7D0" fill-opacity="0.2"/>
<path d="M724.412 181.589H114.382V571.893H724.412V181.589Z" fill="#3F3D56"/>
<path d="M707.065 252.061H432.407V571.531H707.065V252.061Z" fill="#B0B7D0"/>
<path d="M691.886 281.786H525.306V288.503H691.886V281.786Z" fill="white"/>
<path d="M691.886 296.564H525.306V303.281H691.886V296.564Z" fill="white"/>
<path d="M581.728 311.341H525.306V318.058H581.728V311.341Z" fill="white"/>
<path d="M349.818 426.239H183.238V432.956H349.818V426.239Z" fill="white"/>
<path d="M349.818 441.017H183.238V447.734H349.818V441.017Z" fill="white"/>
<path d="M239.66 455.794H183.238V462.511H239.66V455.794Z" fill="white"/>
<path d="M652.856 364.184H486.276V370.901H652.856V364.184Z" fill="white"/>
<path d="M652.856 378.961H486.276V385.678H652.856V378.961Z" fill="white"/>
<path d="M652.856 393.417H486.276V400.134H652.856V393.417Z" fill="white"/>
<path d="M652.856 407.873H486.276V414.59H652.856V407.873Z" fill="white"/>
<path d="M652.856 422.328H486.276V429.045H652.856V422.328Z" fill="white"/>
<path d="M652.856 436.784H486.276V443.501H652.856V436.784Z" fill="white"/>
<path d="M652.856 451.24H486.276V457.956H652.856V451.24Z" fill="white"/>
<path d="M652.856 465.695H486.276V472.412H652.856V465.695Z" fill="white"/>
<path d="M652.856 480.151H486.276V486.868H652.856V480.151Z" fill="white"/>
<path d="M652.856 494.607H486.276V501.324H652.856V494.607Z" fill="white"/>
<path d="M652.856 509.062H486.276V515.779H652.856V509.062Z" fill="white"/>
<path d="M327.228 319.436C327.238 328.485 325.219 337.422 321.32 345.588C317.421 353.755 311.741 360.944 304.698 366.626C302.094 368.742 299.316 370.635 296.394 372.286C294.63 373.287 292.816 374.197 290.958 375.01C284.801 377.728 278.231 379.392 271.523 379.933C269.875 380.07 268.21 380.137 266.528 380.135C263.201 380.139 259.879 379.865 256.597 379.318C255.441 379.138 254.299 378.913 253.171 378.653C251.2 378.215 249.253 377.674 247.338 377.034C239.464 374.408 232.214 370.191 226.038 364.646C224.447 363.235 222.938 361.734 221.52 360.15C214.911 352.843 210.181 344.037 207.737 334.492C205.293 324.948 205.209 314.952 207.493 305.368C209.777 295.784 214.36 286.9 220.845 279.483C227.331 272.067 235.525 266.341 244.719 262.799C253.913 259.258 263.831 258.008 273.616 259.158C283.401 260.308 292.759 263.822 300.882 269.398C309.005 274.974 315.648 282.443 320.238 291.161C324.829 299.879 327.227 309.583 327.228 319.436Z" fill="#B0B7D0"/>
<path d="M724.051 352.528C697.213 352.528 671.475 363.189 652.499 382.165C633.522 401.142 622.861 426.88 622.861 453.717V453.717C622.861 461.577 619.739 469.114 614.181 474.672C608.624 480.229 601.086 483.352 593.227 483.352H544.077C532.497 483.352 521.031 485.632 510.332 490.064C499.634 494.495 489.913 500.991 481.725 509.179C473.537 517.367 467.041 527.088 462.61 537.786C458.179 548.485 455.898 559.951 455.898 571.531V571.531H724.051V352.528H724.051Z" fill="#3F3D56"/>
<path d="M425.541 181.589H412.531V571.893H425.541V181.589Z" fill="#2F2E41"/>
</svg>
