<svg id="Calque_1" data-name="Calque 1" xmlns="http://www.w3.org/2000/svg" viewBox="0 0 250.71 153.66"><defs><style>.cls-1{fill:#fff;}</style></defs><path class="cls-1" d="M250.94,263c.47,0,.95-.09,1.42-.1,4.49,0,9-.22,13.46.06a95.66,95.66,0,0,1,12.95,1.72,121,121,0,0,1,13,3.55,52.56,52.56,0,0,1,7.29,3.33c2.5,1.27,4.94,2.66,7.36,4.07a24.47,24.47,0,0,1,3.45,2.41A91.6,91.6,0,0,1,320,287.39a88.38,88.38,0,0,1,8.86,12.06,69.62,69.62,0,0,1,6.11,12.8c1.45,4,1.94,8.16,2.67,12.29a95.47,95.47,0,0,1,1.44,9.77,88.9,88.9,0,0,1-.12,9.23,37.93,37.93,0,0,1-.4,4.88,92.84,92.84,0,0,1-1.74,9.24,95.08,95.08,0,0,1-3.91,12.08,66,66,0,0,1-5.9,10.91,77,77,0,0,1-8.58,10.77,78.54,78.54,0,0,1-10.08,8.35,65.34,65.34,0,0,1-9.06,5.51,85.82,85.82,0,0,1-22.35,7.28c-8.49,1.64-17,1.4-25.55,1.42-.13,0-.26-.1-.42-.44a11.7,11.7,0,0,1,1.17-.15,54.58,54.58,0,0,0,15.35-2.7A46.76,46.76,0,0,0,280,404.63a49.08,49.08,0,0,0,11-9.89c2.08-2.61,4-5.33,6-8a39.86,39.86,0,0,0,5.6-10.84c1.08-3.21,2.16-6.42,3.4-9.57,1.63-4.15,1.82-8.6,2.84-12.87,1.73-7.27,1-14.6,1.12-21.91a32.74,32.74,0,0,0-.62-6.69c-.8-4.26-1.7-8.52-2.76-12.73a64.64,64.64,0,0,0-2.84-9,92,92,0,0,0-5.33-11,61,61,0,0,0-6.34-8.91c-2.93-3.45-6-6.88-9.88-9.33-3.1-1.95-6.05-4.25-9.38-5.67a76.28,76.28,0,0,0-12.38-3.76,90.57,90.57,0,0,0-9.49-1.28Z" transform="translate(-179.12 -260.32)"/><path class="cls-1" d="M229.53,413.93H179.12v-4.19c1.77-.12,3.53-.32,5.3-.36a18.05,18.05,0,0,0,12.9-5.15,20.6,20.6,0,0,0,4.66-8.15,41.55,41.55,0,0,0,1.85-13.86q0-21.84,0-43.67v-1.87c5.76,1.32,11.35,2.87,16.33,5.79,2.77,1.63,5,4.2,7.5,6.27,1.85,1.52,1.91,3.48,1.91,5.65-.06,19.2,0,38.4,0,57.6Z" transform="translate(-179.12 -260.32)"/><path class="cls-1" d="M229.53,262.77v66.51c0,3.33-.47,4.15-3.81,4.77a112.3,112.3,0,0,1-11.85,1.55c-3.27.25-6.57,0-10.05,0v-1.88c0-14.49.07-29,0-43.48a44.52,44.52,0,0,0-1.23-8.55,19.74,19.74,0,0,0-1.82-4.83c-2.79-5.44-7.1-8.93-13.3-9.68-2.53-.3-5.09-.33-7.75-.49v-4Z" transform="translate(-179.12 -260.32)"/><path class="cls-1" d="M429.84,260.32V307.6c-2.91.48-2.91.41-3.36-2.33-.81-4.81-2.74-9.29-4.36-13.85a24.88,24.88,0,0,0-1.39-2.59c-2.6-5.41-6.52-9.69-11-13.57a48.78,48.78,0,0,0-16.18-8.94,109.68,109.68,0,0,0-21-5,14.36,14.36,0,0,1-3.65-1Z" transform="translate(-179.12 -260.32)"/><path class="cls-1" d="M393.58,313.4h3.07v65.85c-.49,0-1,0-1.49.07-1.34.14-2-.05-2.21-1.79a59.22,59.22,0,0,0-2-9.16,79.82,79.82,0,0,0-3.16-9.32,39,39,0,0,0-7.46-10.93c-4.55-5-10.28-7.83-16.62-9.69-2.43-.72-4.86-1.43-7.31-2.37.31,0,.61-.08.92-.09,4.26-.11,8.54,0,12.78-.36,4.73-.38,9.49-1,13.57-3.78a19,19,0,0,0,5.33-5.34,24.35,24.35,0,0,0,3.46-9.05C392.7,316.11,393.18,314.82,393.58,313.4Z" transform="translate(-179.12 -260.32)"/></svg>